<svg xmlns="http://www.w3.org/2000/svg" width="101.6" height="91.318" viewBox="0 0 101.6 91.318">
  <path id="Trazado_650" data-name="Trazado 650" d="M3468.331,2884.394a44.14,44.14,0,0,0-13.721-16.555l-2.648,3.515q16.573,13.144,16.413,35.965a41.909,41.909,0,0,1-6.111,22.178,40.912,40.912,0,0,1-16.565,15.137,50.517,50.517,0,0,1-23.669,5.289l-.2,0,.6-86.447a12.413,12.413,0,0,0-2.927-.222,55.022,55.022,0,0,0-19.059,3.1,46.176,46.176,0,0,0-15.209,8.784,40.253,40.253,0,0,0-10.043,13.767,43.266,43.266,0,0,0-3.76,17.748,46.884,46.884,0,0,0,14.208,33.982,48.939,48.939,0,0,0,16.089,10.108,58.355,58.355,0,0,0,46.32-2.051,44.987,44.987,0,0,0,18.246-16.943,47.577,47.577,0,0,0,6.735-24.8A50.527,50.527,0,0,0,3468.331,2884.394Zm-67.525,60.952a44.037,44.037,0,0,1-13.219-9.5,40.147,40.147,0,0,1-11.515-29.167q.1-13.809,7.846-23.349l16.888,19.045Zm0-45.723-15.689-17.692c.771-.856,1.586-1.688,2.456-2.489a40.872,40.872,0,0,1,13.233-8.115Zm16.555,45.588h-.046l-.031,4.475a50.9,50.9,0,0,1-14.651-3.538v-20.836l.053.063v-2.832l-.053-.063v-51.807a58.184,58.184,0,0,1,15.217-2.789l-.489,70.648Z" transform="translate(-3371.426 -2863.25)" fill="#00472d"/>
</svg>
